<?xml version="1.0" encoding="UTF-8"?>
<!-- Generator: Adobe Illustrator 12.0.0, SVG Export Plug-In . SVG Version: 6.00 Build 51448)  -->
<!DOCTYPE svg PUBLIC "-//W3C//DTD SVG 1.1//EN" "http://www.w3.org/Graphics/SVG/1.1/DTD/svg11.dtd" [
	<!ENTITY ns_svg "http://www.w3.org/2000/svg">
	<!ENTITY ns_xlink "http://www.w3.org/1999/xlink">
]>
<svg version="1.1" id="Layer_1" xmlns="http://www.w3.org/2000/svg" xmlns:xlink="http://www.w3.org/1999/xlink" width="600" height="480" viewBox="0 0 600 480" overflow="visible" enable-background="new 0 0 600 480" xml:space="preserve">
<rect fill="#E2E2E2" width="600" height="480"/>
<g>
	<path fill="#FFFFFF" d="M509.37,372.602c0,19.191-15.703,34.896-34.896,34.896h-348.95c-19.192,0-34.895-15.703-34.895-34.896   V107.399c0-19.192,15.703-34.895,34.895-34.895h348.951c19.191,0,34.896,15.703,34.896,34.895L509.37,372.602L509.37,372.602z    M125.525,100.42c-3.708,0-6.979,3.271-6.979,6.979v265.203c0,3.707,3.271,6.979,6.979,6.979h348.951   c3.707,0,6.979-3.271,6.979-6.979V107.399c0-3.708-3.271-6.979-6.979-6.979H125.525z M188.336,212.084   c-23.118,0-41.874-18.756-41.874-41.874s18.756-41.874,41.874-41.874s41.874,18.756,41.874,41.874S211.454,212.084,188.336,212.084   z M453.538,351.664H146.462V309.79l69.79-69.79l34.895,34.895l111.666-111.664l90.727,90.727L453.538,351.664L453.538,351.664z"/>
</g>
</svg>